<?xml version="1.0" encoding="UTF-8" standalone="no"?>
<svg
   xmlns:dc="http://purl.org/dc/elements/1.1/"
   xmlns:cc="http://creativecommons.org/ns#"
   xmlns:rdf="http://www.w3.org/1999/02/22-rdf-syntax-ns#"
   xmlns:svg="http://www.w3.org/2000/svg"
   xmlns="http://www.w3.org/2000/svg"
   xmlns:sodipodi="http://sodipodi.sourceforge.net/DTD/sodipodi-0.dtd"
   xmlns:inkscape="http://www.inkscape.org/namespaces/inkscape"
   viewBox="0 0 301.3436 25.056"
   height="25.056"
   width="301.3436"
   xml:space="preserve"
   id="svg2"
   version="1.1"
   sodipodi:docname="Dividers.svg"
   inkscape:version="0.92.4 (5da689c313, 2019-01-14)"><sodipodi:namedview
     pagecolor="#ffffff"
     bordercolor="#666666"
     borderopacity="1"
     objecttolerance="10"
     gridtolerance="10"
     guidetolerance="10"
     inkscape:pageopacity="0"
     inkscape:pageshadow="2"
     inkscape:window-width="1920"
     inkscape:window-height="1017"
     id="namedview3767"
     showgrid="false"
     inkscape:zoom="1.3919214"
     inkscape:cx="319.81693"
     inkscape:cy="-138.028"
     inkscape:window-x="-8"
     inkscape:window-y="-8"
     inkscape:window-maximized="1"
     inkscape:current-layer="svg2" /><metadata
     id="metadata8"><rdf:RDF><cc:Work
         rdf:about=""><dc:format>image/svg+xml</dc:format><dc:type
           rdf:resource="http://purl.org/dc/dcmitype/StillImage" /></cc:Work></rdf:RDF></metadata><defs
     id="defs6"><linearGradient
       id="linearGradient22"
       spreadMethod="pad"
       gradientTransform="matrix(5952.81,0,0,-5952.81,0,2290)"
       gradientUnits="userSpaceOnUse"
       y2="0"
       x2="1"
       y1="0"
       x1="0"><stop
         id="stop14"
         offset="0"
         style="stop-opacity:1;stop-color:#dab89c" /><stop
         id="stop16"
         offset="0.00561798"
         style="stop-opacity:1;stop-color:#dab89c" /><stop
         id="stop18"
         offset="0.511236"
         style="stop-opacity:1;stop-color:#ddd3bd" /><stop
         id="stop20"
         offset="1"
         style="stop-opacity:1;stop-color:#dab89c" /></linearGradient></defs><g
     transform="matrix(1.3333333,0,0,-1.3333333,-77.036398,468.41732)"
     id="g10"><g
       transform="scale(0.1)"
       id="g12"><path
         id="path468"
         style="fill:#362117;fill-opacity:1;fill-rule:evenodd;stroke:none"
         d="m 1594.41,3445.45 c -15.84,30.96 -44.64,35.28 -82.8,20.88 25.92,-33.84 54.01,-37.44 82.8,-20.88 z m 36.72,12.96 c 2.16,30.96 -18.72,47.52 -55.44,53.28 5.77,-37.44 25.2,-53.28 55.44,-53.28 z m 34.56,-2.88 c 12.96,20.88 3.6,40.32 -20.16,57.6 -10.08,-28.8 -0.72,-47.52 20.16,-57.6 z m -36.72,-73.44 c -2.88,-6.48 2.88,-12.24 6.48,-14.4 3.6,-1.44 13.68,-1.44 18,7.2 2.88,5.76 2.88,16.56 -6.48,23.76 -10.8,7.2 -29.52,4.32 -37.44,-11.52 -10.08,-20.16 -2.87,-36 13.68,-44.64 17.28,-8.64 42.48,-2.88 56.17,23.04 12.95,23.76 2.87,50.4 -18.01,63.36 -19.44,12.24 -55.44,12.24 -79.91,-8.64 -4.33,-38.88 -27.37,-63.36 -77.77,-65.52 12.97,47.52 36.73,73.44 76.32,67.68 22.32,25.2 54,38.88 91.45,19.44 30.95,-15.12 42.47,-48.96 24.47,-84.24 -17.28,-32.4 -52.56,-37.44 -77.04,-24.48 -22.32,12.24 -27.36,36 -15.12,58.32 10.08,19.44 34.56,19.44 46.08,11.52 12.24,-7.92 14.4,-20.16 10.08,-28.8 -5.04,-10.8 -17.28,-14.4 -25.92,-9.36 -9.36,4.32 -8.64,12.24 -5.04,17.28 v 0"
         inkscape:connector-curvature="0" /><path
         id="path470"
         style="fill:#362117;fill-opacity:1;fill-rule:evenodd;stroke:none"
         d="m 1814.73,3392.89 c 15.13,-30.96 44.64,-35.28 82.8,-20.88 -25.91,33.84 -54,37.44 -82.8,20.88 z m -36.72,-12.96 c -2.16,-30.96 18.72,-47.52 54.72,-53.28 -5.04,37.44 -24.47,53.28 -54.72,53.28 z m -35.28,2.88 c -12.24,-20.88 -2.87,-40.32 20.88,-57.6 10.08,29.52 0.72,47.52 -20.88,57.6 z m 36.72,73.44 c 3.6,6.48 -2.15,12.24 -5.76,14.4 -3.6,1.44 -13.68,1.44 -17.99,-6.48 -2.89,-6.48 -2.89,-17.28 6.47,-23.76 10.8,-7.92 29.52,-5.04 37.44,10.8 10.08,20.16 2.89,36.72 -13.68,44.64 -18,8.64 -42.48,2.88 -56.16,-23.04 -12.96,-23.76 -2.88,-50.4 18,-63.36 19.44,-12.24 54.73,-11.52 79.2,8.64 4.32,38.88 27.36,63.36 78.48,65.52 -12.95,-47.52 -36.71,-73.44 -77.04,-66.96 -21.6,-25.92 -53.28,-39.6 -91.44,-20.16 -30.24,15.12 -41.76,48.96 -23.76,84.24 17.28,32.4 52.57,38.16 77.04,24.48 22.32,-11.52 27.36,-36 15.12,-58.32 -10.08,-19.44 -34.55,-19.44 -46.08,-11.52 -12.23,7.92 -14.39,20.16 -10.08,28.8 5.04,10.8 16.57,14.4 25.92,9.36 9.36,-4.32 7.92,-12.24 4.32,-17.28 v 0"
         inkscape:connector-curvature="0" /><path
         id="path472"
         style="fill:#362117;fill-opacity:1;fill-rule:evenodd;stroke:none"
         d="m 1899.69,3421.69 c 58.32,-43.92 97.92,8.64 161.28,-17.28 -92.16,66.24 -103.67,-10.08 -161.28,17.28"
         inkscape:connector-curvature="0" /><path
         id="path474"
         style="fill:#362117;fill-opacity:1;fill-rule:evenodd;stroke:none"
         d="m 2104.9,3407.29 c 6.47,6.48 6.47,18 0,24.48 -7.21,6.48 -18.01,6.48 -24.48,0 -7.2,-6.48 -7.2,-18 0,-24.48 6.47,-6.48 17.27,-6.48 24.48,0"
         inkscape:connector-curvature="0" /><path
         id="path476"
         style="fill:#362117;fill-opacity:1;fill-rule:evenodd;stroke:none"
         d="m 2287.77,3421.69 c -58.32,-43.92 -97.91,8.64 -161.27,-17.28 92.15,66.24 103.67,-10.08 161.27,17.28"
         inkscape:connector-curvature="0" /><path
         id="path478"
         style="fill:#362117;fill-opacity:1;fill-rule:evenodd;stroke:none"
         d="m 2676.58,3421.69 c -59.05,-43.92 -98.65,8.64 -162,-17.28 92.15,66.24 104.4,-10.08 162,17.28"
         inkscape:connector-curvature="0" /><path
         id="path480"
         style="fill:#362117;fill-opacity:1;fill-rule:evenodd;stroke:none"
         d="m 2471.37,3407.29 c -7.2,6.48 -7.2,18 0,24.48 6.48,6.48 17.28,6.48 24.48,0 6.49,-6.48 6.49,-18 0,-24.48 -7.2,-6.48 -18,-6.48 -24.48,0"
         inkscape:connector-curvature="0" /><path
         id="path482"
         style="fill:#362117;fill-opacity:1;fill-rule:evenodd;stroke:none"
         d="m 2287.77,3421.69 c 58.32,-43.92 97.93,8.64 161.29,-17.28 -91.45,66.24 -103.69,-10.08 -161.29,17.28"
         inkscape:connector-curvature="0" /><path
         id="path484"
         style="fill:#362117;fill-opacity:1;fill-rule:evenodd;stroke:none"
         d="m 2676.58,3421.69 c 58.32,-43.92 97.91,8.64 161.27,-17.28 -92.15,66.24 -103.68,-10.08 -161.27,17.28"
         inkscape:connector-curvature="0" /><path
         id="path486"
         style="fill:#362117;fill-opacity:1;fill-rule:evenodd;stroke:none"
         d="m 1515.93,3421.69 c -58.32,-43.92 -97.92,8.64 -161.28,-17.28 92.16,66.24 103.68,-10.08 161.28,17.28"
         inkscape:connector-curvature="0" /><path
         id="path488"
         style="fill:#362117;fill-opacity:1;fill-rule:evenodd;stroke:none"
         d="m 1310.73,3407.29 c -6.48,6.48 -6.48,18 0,24.48 7.2,6.48 18.01,6.48 24.48,0 7.2,-6.48 7.2,-18 0,-24.48 -6.47,-6.48 -17.28,-6.48 -24.48,0"
         inkscape:connector-curvature="0" /><path
         id="path490"
         style="fill:#362117;fill-opacity:1;fill-rule:evenodd;stroke:none"
         d="m 1127.85,3421.69 c 58.32,-43.92 97.92,8.64 161.28,-17.28 -92.16,66.24 -103.68,-10.08 -161.28,17.28"
         inkscape:connector-curvature="0" /><path
         id="path492"
         style="fill:#362117;fill-opacity:1;fill-rule:evenodd;stroke:none"
         d="m 739.055,3421.69 c 59.035,-43.92 98.64,8.64 162,-17.28 -92.164,66.24 -104.399,-10.08 -162,17.28"
         inkscape:connector-curvature="0" /><path
         id="path494"
         style="fill:#362117;fill-opacity:1;fill-rule:evenodd;stroke:none"
         d="m 944.254,3407.29 c 7.199,6.48 7.199,18 0,24.48 -6.481,6.48 -17.281,6.48 -24.484,0 -6.477,-6.48 -6.477,-18 0,-24.48 7.203,-6.48 18.003,-6.48 24.484,0"
         inkscape:connector-curvature="0" /><path
         id="path496"
         style="fill:#362117;fill-opacity:1;fill-rule:evenodd;stroke:none"
         d="m 1127.85,3421.69 c -58.32,-43.92 -97.92,8.64 -161.28,-17.28 91.44,66.24 103.68,-10.08 161.28,17.28"
         inkscape:connector-curvature="0" /><path
         id="path498"
         style="fill:#362117;fill-opacity:1;fill-rule:evenodd;stroke:none"
         d="m 739.055,3421.69 c -58.325,-43.92 -97.922,8.64 -161.282,-17.28 92.161,66.24 103.68,-10.08 161.282,17.28"
         inkscape:connector-curvature="0" /></g></g></svg>